<svg aria-labelledby="profileTitle profileDesc" fill="inherit" role="img" stroke-linecap="round" stroke-linejoin="round"
  stroke-width="0" stroke="inherit" viewBox="-351 153 256 256" version="1.2" baseProfile="tiny"
  xmlns="http://www.w3.org/2000/svg">
  <title id="profileTitle">Profile</title>
  <desc id="profileDesc">A vector an identification card.</desc>
  <path
    d="M-272.8 277c-11.8 0-21.1-9.4-21.1-21.1s9.4-21.1 21.1-21.1c11.4 0 21.1 9.4 21.1 21.1s-9.4 21.1-21.1 21.1zm-45.7 27.5v8.3h91.7v-8.3c0-13.5-9.7-21.1-23.2-21.1h-45.3c-13.2-.1-23.2 7.6-23.2 21.1zm184.7-65h-74.9v14.2h74.9v-14.2zm0 29.5h-74.9v14.3h74.9V269zm0 29.8h-74.9v14.3h74.9v-14.3zm-192-107.7h205.6c11.3 0 20.6 9.2 20.6 20.6v113.1c0 11.3-9.2 20.6-20.6 20.6h-205.6c-11.3 0-20.6-9.2-20.6-20.6V211.6c.1-11.3 9.3-20.5 20.6-20.5zm-6.8 133.6c0 3.8 3.1 6.9 6.9 6.9h205.6c3.8 0 6.9-3.1 6.9-6.9V211.6c0-3.8-3.1-6.9-6.9-6.9h-205.6c-3.8 0-6.9 3.1-6.9 6.9v113.1z" />
</svg>